<?xml version="1.0" encoding="UTF-8"?>
<svg width="797px" height="287px" viewBox="0 0 797 287" version="1.1" xmlns="http://www.w3.org/2000/svg" xmlns:xlink="http://www.w3.org/1999/xlink">
    <title>logo</title>
    <g id="logo" stroke="none" stroke-width="1" fill="none" fill-rule="evenodd">
        <path d="M254.352631,196.902581 C258.091083,196.902581 262.661725,196.876976 268.064557,196.825764 C273.467388,196.774552 279.164687,196.748946 285.156453,196.748946 L285.156453,196.748946 L287.019254,196.749312 C295.29746,196.7526 302.166233,196.778084 307.625574,196.825764 C312.73755,196.87041 315.854762,196.895595 316.97721,196.901319 L317.154582,196.902581 C317.180693,196.902581 317.205078,196.902581 317.227738,196.902581 L317.342989,196.902581 L317.342989,186.224947 C317.332747,186.224947 317.320943,186.224966 317.307578,186.225004 L317.145123,186.225858 C316.212969,186.232079 312.655699,186.270184 306.473312,186.340174 C299.687765,186.416991 291.711547,186.4554 282.544657,186.4554 C280.137709,186.4554 277.449096,186.442597 274.478819,186.416991 C271.508542,186.391385 268.973564,186.378583 266.873885,186.378583 L266.873885,186.378583 L266.873227,186.127003 C266.873139,186.102942 266.873042,186.077424 266.872937,186.050448 L266.872199,185.871102 C266.865736,184.362009 266.840692,179.768483 266.797068,172.090526 C266.751881,164.137654 266.72663,154.450408 266.721313,143.028787 L266.720317,139.550269 L266.720317,139.550269 L266.72025,138.367639 C266.72025,138.170108 266.720283,137.970585 266.720348,137.76907 L266.721132,136.53607 C266.726031,131.298958 266.751343,124.816664 266.797068,117.089188 C266.848279,108.434415 266.925097,100.803876 267.02752,94.1975702 L267.02752,94.1975702 L254.352631,94.1975702 C254.403843,97.2702706 254.48066,102.621891 254.583084,110.25243 C254.678969,117.395914 254.729972,127.568977 254.736093,140.77162 L254.736719,143.514412 C254.736719,152.220396 254.69831,161.092819 254.621492,170.131679 C254.544675,179.170539 254.455054,188.094174 254.352631,196.902581 Z" id="Path" fill="#444444" fill-rule="nonzero"></path>
        <g id="Group" transform="translate(336.915365, 91.201687)" fill="#444444" fill-rule="nonzero">
            <polygon id="Path" points="13.0846349 13.7983127 13.0846349 -0.201687323 -0.915365086 -0.201687323 -0.915365086 13.7983127"></polygon>
            <path d="M13.0846349,106.798313 C13.0846349,106.592779 13.0213438,102.867483 12.8947615,95.6224233 C12.7681792,88.3773641 12.7048881,78.7686684 12.7048881,66.7963364 L12.7052823,65.9003717 C12.7094871,61.082778 12.7473304,55.639338 12.8188121,49.5700518 C12.8947615,43.1214352 12.9833691,36.1975222 13.0846349,28.7983127 L13.0846349,28.7983127 L1.08463491,28.7983127 C1.23653365,37.3279569 1.32514124,44.765704 1.3504577,51.1115538 C1.37239863,56.6112903 1.38483182,61.7154317 1.38775728,66.423978 L1.38789053,69.8466224 C1.38301388,75.6995642 1.34521981,82.9555295 1.27450833,91.6145182 C1.19855896,100.914913 1.13526783,105.976178 1.08463491,106.798313 L1.08463491,106.798313 L13.0846349,106.798313 Z" id="Path"></path>
        </g>
        <path d="M417.24102,198.148399 C417.480805,198.148399 421.479876,198.148399 429.238235,198.148399 L426.689062,187.68448 C421.004907,187.633269 417.85556,187.607663 417.24102,187.607663 C409.764116,187.607663 404.233255,186.135327 400.648438,183.190656 C397.063621,180.245985 395.271212,175.44489 395.271212,168.787373 L395.271383,149.435042 C395.274223,146.87067 395.312575,143.027901 395.386438,137.906734 C395.4586,132.903508 395.496868,129.775764 395.501241,128.523499 L395.501665,128.304545 L423.002333,128.304545 L423.002333,119.316896 L395.501665,119.316896 L395.501665,101.111146 L384.363126,101.111146 L384.363126,119.316896 L370.766426,119.316896 L370.766426,128.304545 L383.671768,128.304545 C383.671768,137.932339 383.633359,145.998178 383.556542,152.50206 C383.479724,159.005943 383.441315,165.100132 383.441315,170.784628 C383.441315,179.849094 386.129928,186.570626 391.507154,190.949224 C396.88438,195.327822 406.74274,198.148399 417.24102,198.148399 Z" id="Path" fill="#444444" fill-rule="nonzero"></path>
        <path d="M466.725931,198.148399 C472.768909,198.148399 478.448947,197.8628 483.416479,196.710538 C488.384011,195.558275 492.788215,193.855487 496.629091,191.602173 C500.828448,189.144013 504.17001,185.93048 506.653776,181.961576 C509.137542,177.992671 510.379425,173.370817 510.379425,168.096015 C510.379425,163.077271 509.086331,158.609053 506.500141,154.69136 C503.913951,150.773667 500.060273,147.304076 494.939106,144.282587 C491.610347,142.336543 488.217574,140.531332 484.760786,138.866952 C481.303998,137.202573 478.525764,135.730237 476.426086,134.449946 C472.27794,131.991785 469.448495,129.59764 467.937751,127.267508 C466.427006,124.937377 465.671634,122.517626 465.671634,120.008254 C465.671634,117.191612 466.388598,114.733451 467.822525,112.633773 C469.256451,110.534094 470.997648,108.895321 473.046115,107.717452 C475.350641,106.385949 478.026451,105.400124 481.073545,104.759978 C484.12064,104.119832 487.078114,103.799759 489.945968,103.799759 C494.759865,103.799759 498.805587,103.953394 502.083134,104.260664 C505.360681,104.567934 507.229907,104.747175 507.690812,104.798387 L506.615367,93.6598477 C506.154462,93.608636 504.298039,93.4934097 501.046098,93.3141689 C497.794156,93.134928 494.580624,93.0453076 491.4055,93.0453076 C485.618581,93.0453076 480.356582,93.6598477 475.619502,94.8889278 C470.882422,96.118008 466.875109,97.9616282 463.597562,100.419789 C460.371226,102.877949 457.746628,105.835423 455.723767,109.292211 C453.700906,112.748999 452.689475,116.83313 452.689475,121.544604 C452.689475,126.153654 453.803329,130.340209 456.031037,134.104267 C458.258745,137.868325 461.984394,141.337916 467.207985,144.513039 C470.280685,146.407871 473.737473,148.251492 477.578348,150.0439 C481.419224,151.836309 484.543136,153.449476 486.950085,154.883403 C490.688537,157.085505 493.364347,159.377228 494.977514,161.75857 C496.590682,164.139913 497.397266,167.046176 497.397266,170.477358 C497.397266,173.703693 496.590682,176.3667 494.977514,178.466379 C493.364347,180.566058 491.047019,182.358466 488.02553,183.843605 C485.721004,184.970261 482.417852,185.892072 478.116071,186.609035 C473.81429,187.325998 470.306291,187.68448 467.592072,187.68448 C464.621795,187.68448 461.228385,187.68448 457.411843,187.68448 L449.388246,187.68448 L452.1299,198.131662 C459.675556,198.14282 464.5409,198.148399 466.725931,198.148399 Z" id="Path" fill="#444444" fill-rule="nonzero"></path>
        <path d="M543.423141,197.056216 L543.115871,138.060369 C548.185827,135.03888 552.999724,132.644734 557.557563,130.877931 C562.115402,129.111129 565.853854,128.227727 568.77292,128.227727 C573.945299,128.227727 577.581327,129.508019 579.681006,132.068603 C581.780685,134.629186 582.907341,138.85415 583.060976,144.743492 C583.112188,147.150441 583.150597,150.952907 583.176203,156.150892 C583.198736,160.725119 583.211354,164.317802 583.214058,166.928942 L583.21393,168.556238 C583.208475,171.198033 583.170294,176.076173 583.099385,183.190656 C583.022568,190.898013 582.958553,195.519866 582.907341,197.056216 L582.907341,197.056216 L595.044508,197.056216 C594.993296,194.802903 594.916479,190.654757 594.814056,184.61178 C594.711632,178.568802 594.660421,173.217182 594.660421,168.55692 C594.660421,165.637855 594.698829,161.835388 594.775647,157.14952 C594.852464,152.463652 594.890873,146.894382 594.890873,140.441711 C594.890873,133.272077 592.906421,127.62599 588.937516,123.50345 C584.968611,119.380911 579.706612,117.319641 573.151518,117.319641 C569.822759,117.319641 565.828248,118.113422 561.167986,119.700984 C556.507724,121.288546 550.515958,124.130793 543.192689,128.227727 L543.192689,128.227727 L543.115871,128.15091 L543.423141,84.4417464 L531.285975,84.4417464 C531.43961,96.1692197 531.52923,106.552386 531.554836,115.591247 C531.575869,123.016025 531.588264,129.39552 531.59202,134.729732 L531.592804,136.097554 C531.592902,136.321572 531.592983,136.543615 531.593049,136.763681 L531.59316,138.804949 C531.593104,139.054965 531.59302,139.306806 531.592908,139.56047 L531.591898,141.10434 C531.584491,149.715981 531.546531,160.313571 531.478018,172.897109 C531.401201,187.005926 531.337186,195.058961 531.285975,197.056216 L531.285975,197.056216 L543.423141,197.056216 Z" id="Path" fill="#444444" fill-rule="nonzero"></path>
        <path d="M652.538304,118 C657.849847,118 662.663432,118.886278 666.97906,120.658835 C671.294688,122.431391 675.137896,125.090226 678.508682,128.635338 C682.390194,132.694236 685.275792,137.254073 687.165475,142.31485 C689.055158,147.375627 690,152.937343 690,159 C690,164.9599 688.940245,170.662907 686.820735,176.109023 C684.701226,181.555138 681.649642,186.204887 677.665986,190.058271 C674.295199,193.295113 670.554137,195.761278 666.442799,197.456767 C662.331461,199.152256 657.671093,200 652.461696,200 C647.558733,200 642.962206,199.1651 638.672114,197.495301 C634.382022,195.825501 630.551583,193.37218 627.180797,190.135338 C623.299285,186.384712 620.298774,181.760652 618.179265,176.263158 C616.059755,170.765664 615,164.9599 615,158.845865 C615,152.937343 615.906537,147.504073 617.719612,142.546053 C619.532686,137.588033 622.354443,133.130952 626.184883,129.174812 C629.606742,125.578321 633.590398,122.816729 638.135853,120.890038 C642.681307,118.963346 647.482125,118 652.538304,118 Z M651.538695,127 C647.978756,127 644.883156,127.561317 642.251897,128.683951 C639.620637,129.806584 637.144158,131.567078 634.822458,133.965432 C632.088012,136.720988 629.933991,140.241975 628.360395,144.528395 C626.786798,148.814815 626,153.254321 626,157.846914 C626,163.051852 626.799697,167.835802 628.39909,172.198765 C629.998483,176.561728 632.578149,180.325103 636.138088,183.488889 C638.150228,185.274897 640.471927,186.639918 643.103187,187.583951 C645.734446,188.527984 648.520486,189 651.461305,189 C654.711684,189 657.742792,188.438683 660.554628,187.316049 C663.366464,186.193416 665.830046,184.560494 667.945372,182.417284 C670.886191,179.457613 673.130501,175.885597 674.6783,171.701235 C676.2261,167.516872 677,163.128395 677,158.535802 C677,153.739095 676.213202,149.069959 674.639605,144.528395 C673.066009,139.986831 670.628225,136.159671 667.326252,133.046914 C665.314112,131.107819 662.927921,129.615226 660.167678,128.569136 C657.407436,127.523045 654.531108,127 651.538695,127 Z" id="Combined-Shape" fill="#444444" fill-rule="nonzero"></path>
        <path d="M718.665127,119 L719.472937,119.001053 C729.915383,119.028422 738.053349,119.589499 743.886836,120.684282 C749.8699,121.807136 755.311393,123.797651 760.211316,126.655827 C765.420708,129.667118 769.52117,133.686427 772.512702,138.713753 C775.504234,143.741079 777,149.521229 777,156.054201 C777,163.965221 775.220554,170.689589 771.661663,176.227304 C768.102771,181.765018 763.306005,186.141599 757.271363,189.357046 C752.010393,192.113144 746.233641,194.05262 739.941109,195.175474 C733.648576,196.298329 727.665512,196.859756 721.991917,196.859756 L721.991917,196.859756 L722.301386,232 L710,232 L710.002218,231.959026 C710.053423,230.929473 710.117156,223.887011 710.193418,210.83164 C710.270785,197.58706 710.309469,184.304201 710.309469,170.983062 L710.309469,170.983062 L710.308884,169.214262 C710.304789,162.937353 710.279195,155.756289 710.232102,147.67107 C710.180523,138.815831 710.103156,129.284327 710,119.076558 C711.6505,119.025519 713.288106,119 714.912818,119 L714.912818,119 L718.665127,119 Z M725.738525,129 L722.233037,129 L722.232941,129.078881 L722.232941,129.078881 L722.232178,129.268021 C722.226073,130.388338 722.18741,133.293769 722.116187,137.984314 C722.044519,142.704174 722.005819,150.579134 722,161.609192 L722,161.609192 L722,165.640819 C722.002945,168.167097 722.015708,171.495974 722.038287,175.627451 C722.061781,179.926154 722.074646,183.438722 722.076884,186.165153 L722.076884,186.165153 L722.077237,187 C726.958955,187 731.840673,186.557734 736.72239,185.673203 C741.604108,184.788671 745.628929,183.588235 748.796852,182.071895 C754.094035,179.544662 758.118855,176.183442 760.871313,171.988235 C763.623771,167.793028 765,162.6122 765,156.445752 C765,151.492375 763.805537,147.145534 761.416611,143.405229 C759.027686,139.664924 755.911696,136.708061 752.068641,134.534641 C748.589119,132.613943 744.629215,131.211329 740.188929,130.326797 C735.748643,129.442266 730.931842,129 725.738525,129 L725.738525,129 Z" id="Combined-Shape" fill="#444444" fill-rule="nonzero"></path>
        <path d="M198,54 L198,232 L20,232 L20,54 L61.9991473,54.0001836 L62,88.6279222 L62.0065646,89.4443798 C62.4392733,116.33525 84.2086668,138 111,138 C138.061953,138 160,115.895368 160,88.6279222 L160,88.6279222 L159.999147,54.0001836 L198,54 Z M138.012147,54.0001836 L138.012821,87.3619715 L138.009286,87.8016025 C137.776289,102.281302 126.054308,113.946936 111.628205,113.946936 C97.2021026,113.946936 85.4801215,102.281302 85.2471245,87.8016025 L85.2471245,87.8016025 L85.2435897,87.3619715 L85.2431473,54.0001836 L138.012147,54.0001836 Z" id="Combined-Shape" fill="#1FA0EE"></path>
    </g>
</svg>